<mxfile host="app.diagrams.net" agent="Mozilla/5.0 (Windows NT 10.0; Win64; x64) AppleWebKit/537.36 (KHTML, like Gecko) Chrome/132.0.0.0 Safari/537.36 OPR/117.0.0.0" version="26.2.8">
  <diagram name="Página-1" id="Qsn12XydgMh9sroDuTs8">
    <mxGraphModel dx="833" dy="1622" grid="1" gridSize="10" guides="1" tooltips="1" connect="1" arrows="1" fold="1" page="1" pageScale="1" pageWidth="827" pageHeight="1169" math="0" shadow="0">
      <root>
        <mxCell id="0" />
        <mxCell id="1" parent="0" />
        <mxCell id="FNr7UzJ2Tyc3NttPIcPI-1" value="" style="edgeStyle=orthogonalEdgeStyle;rounded=0;orthogonalLoop=1;jettySize=auto;html=1;" edge="1" parent="1" source="FNr7UzJ2Tyc3NttPIcPI-2" target="FNr7UzJ2Tyc3NttPIcPI-4">
          <mxGeometry relative="1" as="geometry" />
        </mxCell>
        <mxCell id="FNr7UzJ2Tyc3NttPIcPI-2" value="Início" style="rounded=1;whiteSpace=wrap;html=1;fontSize=12;glass=0;strokeWidth=1;shadow=0;" vertex="1" parent="1">
          <mxGeometry x="425" y="-1060" width="60" height="40" as="geometry" />
        </mxCell>
        <mxCell id="FNr7UzJ2Tyc3NttPIcPI-3" value="" style="edgeStyle=orthogonalEdgeStyle;rounded=0;orthogonalLoop=1;jettySize=auto;html=1;" edge="1" parent="1" source="FNr7UzJ2Tyc3NttPIcPI-4" target="FNr7UzJ2Tyc3NttPIcPI-9">
          <mxGeometry relative="1" as="geometry" />
        </mxCell>
        <mxCell id="FNr7UzJ2Tyc3NttPIcPI-4" value="i = 0" style="rounded=0;whiteSpace=wrap;html=1;" vertex="1" parent="1">
          <mxGeometry x="395" y="-970" width="120" height="60" as="geometry" />
        </mxCell>
        <mxCell id="FNr7UzJ2Tyc3NttPIcPI-5" value="" style="edgeStyle=orthogonalEdgeStyle;rounded=0;orthogonalLoop=1;jettySize=auto;html=1;" edge="1" parent="1" source="FNr7UzJ2Tyc3NttPIcPI-9" target="FNr7UzJ2Tyc3NttPIcPI-10">
          <mxGeometry relative="1" as="geometry" />
        </mxCell>
        <mxCell id="FNr7UzJ2Tyc3NttPIcPI-6" value="Não" style="edgeLabel;html=1;align=center;verticalAlign=middle;resizable=0;points=[];" vertex="1" connectable="0" parent="FNr7UzJ2Tyc3NttPIcPI-5">
          <mxGeometry x="-0.64" y="-1" relative="1" as="geometry">
            <mxPoint as="offset" />
          </mxGeometry>
        </mxCell>
        <mxCell id="FNr7UzJ2Tyc3NttPIcPI-7" style="edgeStyle=orthogonalEdgeStyle;rounded=0;orthogonalLoop=1;jettySize=auto;html=1;entryX=0;entryY=0.5;entryDx=0;entryDy=0;" edge="1" parent="1" source="FNr7UzJ2Tyc3NttPIcPI-9">
          <mxGeometry relative="1" as="geometry">
            <mxPoint x="660" y="-840" as="targetPoint" />
          </mxGeometry>
        </mxCell>
        <mxCell id="FNr7UzJ2Tyc3NttPIcPI-8" value="Sim" style="edgeLabel;html=1;align=center;verticalAlign=middle;resizable=0;points=[];" vertex="1" connectable="0" parent="FNr7UzJ2Tyc3NttPIcPI-7">
          <mxGeometry x="-0.0312" relative="1" as="geometry">
            <mxPoint as="offset" />
          </mxGeometry>
        </mxCell>
        <mxCell id="FNr7UzJ2Tyc3NttPIcPI-9" value="i = 10 ?" style="shape=hexagon;perimeter=hexagonPerimeter2;whiteSpace=wrap;html=1;fixedSize=1;" vertex="1" parent="1">
          <mxGeometry x="395" y="-880" width="120" height="80" as="geometry" />
        </mxCell>
        <mxCell id="FNr7UzJ2Tyc3NttPIcPI-17" value="" style="edgeStyle=orthogonalEdgeStyle;rounded=0;orthogonalLoop=1;jettySize=auto;html=1;" edge="1" parent="1" source="FNr7UzJ2Tyc3NttPIcPI-10" target="FNr7UzJ2Tyc3NttPIcPI-16">
          <mxGeometry relative="1" as="geometry" />
        </mxCell>
        <mxCell id="FNr7UzJ2Tyc3NttPIcPI-10" value="i = i + 1" style="whiteSpace=wrap;html=1;" vertex="1" parent="1">
          <mxGeometry x="395" y="-750" width="120" height="60" as="geometry" />
        </mxCell>
        <mxCell id="FNr7UzJ2Tyc3NttPIcPI-11" value="Fim" style="rounded=1;whiteSpace=wrap;html=1;fontSize=12;glass=0;strokeWidth=1;shadow=0;" vertex="1" parent="1">
          <mxGeometry x="660" y="-860" width="60" height="40" as="geometry" />
        </mxCell>
        <mxCell id="FNr7UzJ2Tyc3NttPIcPI-19" value="" style="edgeStyle=orthogonalEdgeStyle;rounded=0;orthogonalLoop=1;jettySize=auto;html=1;" edge="1" parent="1" source="FNr7UzJ2Tyc3NttPIcPI-16" target="FNr7UzJ2Tyc3NttPIcPI-18">
          <mxGeometry relative="1" as="geometry" />
        </mxCell>
        <mxCell id="FNr7UzJ2Tyc3NttPIcPI-16" value="&lt;div&gt;&lt;br&gt;&lt;/div&gt;Ler nome" style="shape=manualInput;whiteSpace=wrap;html=1;" vertex="1" parent="1">
          <mxGeometry x="390" y="-630" width="130" height="60" as="geometry" />
        </mxCell>
        <mxCell id="FNr7UzJ2Tyc3NttPIcPI-21" value="" style="edgeStyle=orthogonalEdgeStyle;rounded=0;orthogonalLoop=1;jettySize=auto;html=1;" edge="1" parent="1" source="FNr7UzJ2Tyc3NttPIcPI-18" target="FNr7UzJ2Tyc3NttPIcPI-20">
          <mxGeometry relative="1" as="geometry" />
        </mxCell>
        <mxCell id="FNr7UzJ2Tyc3NttPIcPI-18" value="&lt;div&gt;&lt;br&gt;&lt;/div&gt;Ler idade" style="shape=manualInput;whiteSpace=wrap;html=1;" vertex="1" parent="1">
          <mxGeometry x="390" y="-490" width="130" height="60" as="geometry" />
        </mxCell>
        <mxCell id="FNr7UzJ2Tyc3NttPIcPI-23" value="" style="edgeStyle=orthogonalEdgeStyle;rounded=0;orthogonalLoop=1;jettySize=auto;html=1;" edge="1" parent="1" source="FNr7UzJ2Tyc3NttPIcPI-20" target="FNr7UzJ2Tyc3NttPIcPI-22">
          <mxGeometry relative="1" as="geometry" />
        </mxCell>
        <mxCell id="FNr7UzJ2Tyc3NttPIcPI-20" value="&lt;div&gt;&lt;br&gt;&lt;/div&gt;Ler sexo" style="shape=manualInput;whiteSpace=wrap;html=1;" vertex="1" parent="1">
          <mxGeometry x="390" y="-350" width="130" height="60" as="geometry" />
        </mxCell>
        <mxCell id="FNr7UzJ2Tyc3NttPIcPI-25" value="" style="edgeStyle=orthogonalEdgeStyle;rounded=0;orthogonalLoop=1;jettySize=auto;html=1;" edge="1" parent="1" source="FNr7UzJ2Tyc3NttPIcPI-22" target="FNr7UzJ2Tyc3NttPIcPI-24">
          <mxGeometry relative="1" as="geometry" />
        </mxCell>
        <mxCell id="FNr7UzJ2Tyc3NttPIcPI-26" value="Verdadeiro" style="edgeLabel;html=1;align=center;verticalAlign=middle;resizable=0;points=[];" vertex="1" connectable="0" parent="FNr7UzJ2Tyc3NttPIcPI-25">
          <mxGeometry y="2" relative="1" as="geometry">
            <mxPoint as="offset" />
          </mxGeometry>
        </mxCell>
        <mxCell id="FNr7UzJ2Tyc3NttPIcPI-28" style="edgeStyle=orthogonalEdgeStyle;rounded=0;orthogonalLoop=1;jettySize=auto;html=1;entryX=1;entryY=0.5;entryDx=0;entryDy=0;" edge="1" parent="1" source="FNr7UzJ2Tyc3NttPIcPI-22" target="FNr7UzJ2Tyc3NttPIcPI-27">
          <mxGeometry relative="1" as="geometry" />
        </mxCell>
        <mxCell id="FNr7UzJ2Tyc3NttPIcPI-30" value="Falso" style="edgeLabel;html=1;align=center;verticalAlign=middle;resizable=0;points=[];" vertex="1" connectable="0" parent="FNr7UzJ2Tyc3NttPIcPI-28">
          <mxGeometry x="-0.1143" y="-1" relative="1" as="geometry">
            <mxPoint as="offset" />
          </mxGeometry>
        </mxCell>
        <mxCell id="FNr7UzJ2Tyc3NttPIcPI-22" value="sexo = masculino &amp;amp; idade &amp;gt; 21" style="rhombus;whiteSpace=wrap;html=1;" vertex="1" parent="1">
          <mxGeometry x="360" y="-240" width="190" height="140" as="geometry" />
        </mxCell>
        <mxCell id="FNr7UzJ2Tyc3NttPIcPI-29" style="edgeStyle=orthogonalEdgeStyle;rounded=0;orthogonalLoop=1;jettySize=auto;html=1;entryX=0.5;entryY=1;entryDx=0;entryDy=0;" edge="1" parent="1" source="FNr7UzJ2Tyc3NttPIcPI-24" target="FNr7UzJ2Tyc3NttPIcPI-27">
          <mxGeometry relative="1" as="geometry" />
        </mxCell>
        <mxCell id="FNr7UzJ2Tyc3NttPIcPI-24" value="nome" style="shape=display;whiteSpace=wrap;html=1;" vertex="1" parent="1">
          <mxGeometry x="415" y="-50" width="80" height="40" as="geometry" />
        </mxCell>
        <mxCell id="FNr7UzJ2Tyc3NttPIcPI-31" style="edgeStyle=orthogonalEdgeStyle;rounded=0;orthogonalLoop=1;jettySize=auto;html=1;entryX=0;entryY=0.5;entryDx=0;entryDy=0;" edge="1" parent="1" source="FNr7UzJ2Tyc3NttPIcPI-27" target="FNr7UzJ2Tyc3NttPIcPI-9">
          <mxGeometry relative="1" as="geometry">
            <Array as="points">
              <mxPoint x="200" y="-840" />
            </Array>
          </mxGeometry>
        </mxCell>
        <mxCell id="FNr7UzJ2Tyc3NttPIcPI-27" value="" style="ellipse;whiteSpace=wrap;html=1;aspect=fixed;" vertex="1" parent="1">
          <mxGeometry x="180" y="-190" width="40" height="40" as="geometry" />
        </mxCell>
      </root>
    </mxGraphModel>
  </diagram>
</mxfile>
